<svg width="470" height="250" viewBox="0 0 507 250" fill="none" xmlns="http://www.w3.org/2000/svg">
<path d="M348.506 232.368H361.862V223.644H348.506V232.368Z" fill="#455A64"/>
<path d="M331.188 231.791H344.544V223.067H331.188V231.791Z" fill="#455A64"/>
<path d="M313.851 231.214H327.207V222.49H313.851V231.214Z" fill="#455A64"/>
<path d="M296.533 230.638H309.889V221.914H296.533V230.638Z" fill="#455A64"/>
<path d="M279.196 230.061H292.552V221.336H279.196V230.061Z" fill="#455A64"/>
<path d="M261.878 229.485H275.234V220.76H261.878V229.485Z" fill="#455A64"/>
<path d="M244.542 228.908H257.898V220.184H244.542V228.908Z" fill="#455A64"/>
<path d="M227.224 228.331H240.58V219.607H227.224V228.331Z" fill="#455A64"/>
<path d="M209.887 227.755H223.243V219.031H209.887V227.755Z" fill="#455A64"/>
<path d="M206.613 237.391H365.136V226.788L206.613 222.361V237.391Z" fill="#37474F"/>
<path d="M51.9035 195.537H313.591L271.979 0.703369H10.2731L51.9035 195.537Z" fill="#455A64"/>
<path d="M42.2121 195.537H303.918L262.288 0.703369H0.600342L42.2121 195.537Z" fill="#37474F"/>
<path d="M129.64 86.8289C130.439 91.266 132.737 95.2943 136.15 98.2401C139.563 101.186 143.884 102.871 148.39 103.012C150.425 103.077 152.447 102.679 154.306 101.85C156.165 101.02 157.812 99.7796 159.122 98.222C160.433 96.6644 161.373 94.83 161.873 92.8566C162.372 90.8833 162.418 88.8224 162.006 86.8289C161.198 82.3962 158.897 78.3737 155.486 75.4296C152.075 72.4856 147.759 70.7974 143.256 70.6454C141.221 70.5809 139.199 70.9784 137.34 71.8081C135.481 72.6378 133.834 73.8781 132.524 75.4357C131.213 76.9933 130.273 78.8277 129.773 80.8011C129.274 82.7744 129.228 84.8353 129.64 86.8289Z" fill="#263238"/>
<path d="M116.228 246.412H244.932V236.423L116.228 232.256V246.412Z" fill="#455A64"/>
<path d="M81.2383 246.394H150.343L191.955 137.239H122.85L81.2383 246.394Z" fill="#455A64"/>
<path d="M69.8541 246.394H138.959L180.589 137.239H111.484L69.8541 246.394Z" fill="#263238"/>
<path d="M370.028 249.072H502.732C514.06 249.072 497.672 216.835 456.34 204.428C415.007 192.021 356.914 236.981 370.028 249.072Z" fill="#37474F"/>
<path d="M422.113 249.072C421.274 245.556 420.199 242.101 418.895 238.729C417.605 235.4 416.031 232.189 414.188 229.131C412.379 226.063 410.219 223.217 407.752 220.649L405.892 218.788L403.827 217.058C402.525 215.794 400.907 214.975 399.475 213.822C402.89 215.206 406.038 217.176 408.775 219.644C411.544 222.119 413.916 225.005 415.807 228.201C417.696 231.378 419.2 234.769 420.29 238.302C421.363 241.797 421.976 245.418 422.113 249.072Z" fill="#263238"/>
<path d="M406.376 218.399C404.516 219.366 402.748 220.259 400.963 221.319C399.177 222.379 397.373 223.31 395.624 224.351C392.127 226.453 388.648 228.574 385.356 230.955C382.012 233.247 378.897 235.857 376.055 238.749C374.645 240.189 373.398 241.78 372.335 243.492C371.223 245.2 370.417 247.088 369.954 249.073C370.072 246.984 370.61 244.941 371.535 243.064C372.48 241.19 373.628 239.424 374.958 237.8C377.681 234.617 380.807 231.803 384.258 229.429C391.056 224.71 398.499 220.995 406.357 218.399H406.376Z" fill="#263238"/>
</svg>
