<svg width="330" height="340" viewBox="0 0 371 401" fill="none" xmlns="http://www.w3.org/2000/svg">
<path d="M345.597 183.702C331.255 246.166 302.218 325.241 279.803 341.201C261.723 354.074 166.799 376.731 161.516 377.307C148.402 378.628 122.452 286.066 136.106 282.309C153.238 277.565 234.564 275.036 239.196 270.292C243.828 265.549 273.59 225.239 307.111 178.791C330.214 146.703 354.489 144.955 345.597 183.702Z" fill="#F8D197"/>
<path d="M172.007 372.23C170.445 373.011 148.29 384.154 134.581 388.134C124.368 391.092 94.6987 398.83 90.3274 387.911C87.3325 380.47 104.223 373.848 116.072 368.9C122.322 366.315 130.023 359.767 128.182 355.767C124.964 348.736 108.892 355.767 98.3261 361.925C77.8643 373.811 50.6501 395.184 38.1685 384.805C33.4623 380.898 38.9311 373.755 46.9484 366.761C33.9273 374.908 20.0691 381.642 14.656 377.457C11.5682 375.095 11.4193 371.876 13.1493 368.156C9.13134 369.458 5.57844 369.198 3.10443 366.594C-1.11814 362.166 0.928053 355.637 5.55985 348.941C4.76645 348.853 4.0053 348.577 3.33911 348.137C2.67291 347.698 2.12069 347.106 1.7279 346.411C-7.23808 332.757 37.5732 293.564 53.0869 289.899C98.6795 279.054 147.174 283.017 147.174 283.017C165.087 297.321 172.044 372.193 172.007 372.23Z" fill="#F8D197"/>
<path d="M104.948 330.245C94.093 331.935 83.7239 335.924 74.5346 341.945C62.9644 349.591 55.3006 358.519 45.6092 367.504C45.5737 367.555 45.5562 367.616 45.5594 367.678C45.5626 367.74 45.5864 367.799 45.6269 367.846C45.6674 367.893 45.7224 367.925 45.7832 367.937C45.844 367.949 45.9071 367.941 45.9626 367.913C50.5758 363.635 69.7354 347.563 74.6834 343.917C83.6157 337.18 93.9662 332.568 104.948 330.431C105.116 330.412 105.078 330.226 104.948 330.245Z" fill="#263238"/>
<path d="M96.4659 310.9C84.4864 314.174 72.2838 317.485 61.1228 323.158C48.9388 329.353 39.4147 339.472 30.0581 349.201C24.428 355.041 18.9344 361.012 13.5771 367.114C13.3539 367.356 13.6887 367.765 13.9305 367.505C23.4298 357.46 33.2328 347.7 43.3397 338.226C52.6553 329.387 63.6224 322.471 75.6135 317.875C82.4774 315.271 89.5089 313.188 96.5403 311.104C96.6333 311.067 96.5961 310.863 96.4659 310.9Z" fill="#263238"/>
<path d="M83.668 293.972C72.0234 296.372 61.8669 298.418 51.543 304.649C37.908 312.908 24.7195 326.822 20.1063 331.77C14.9909 337.221 10.08 342.931 5.22502 348.512C5.0204 348.735 5.42964 349.088 5.63425 348.847C16.7043 336.372 28.5656 324.622 41.1447 313.671C47.0641 308.372 53.765 304.018 61.0112 300.761C68.3554 297.873 75.936 295.626 83.668 294.046C83.668 294.046 83.7052 293.972 83.668 293.972Z" fill="#263238"/>
<path d="M239.884 261.178L327.312 257.457C327.312 257.457 343.198 214.097 349.038 175.61C354.879 137.124 322.085 150.926 289.625 192.352C257.165 233.777 239.884 261.178 239.884 261.178Z" fill="#1BFF07"/>
<path d="M268.512 235.005C269.107 234.838 269.703 234.782 270.372 234.652C270.89 234.538 271.428 234.542 271.944 234.662C272.461 234.783 272.944 235.018 273.357 235.35C273.771 235.682 274.106 236.102 274.336 236.58C274.566 237.058 274.686 237.581 274.688 238.112C274.677 238.588 274.79 239.06 275.015 239.48C275.24 239.9 275.569 240.256 275.971 240.511C276.413 240.797 276.917 240.969 277.441 241.014C278.036 241.125 278.632 241.2 279.301 241.367C278.706 241.535 278.111 241.609 277.441 241.739C276.772 241.873 276.078 241.802 275.451 241.535C274.791 241.247 274.229 240.774 273.833 240.173C273.436 239.572 273.223 238.869 273.218 238.149C273.214 237.677 273.086 237.214 272.848 236.806C272.61 236.399 272.269 236.06 271.861 235.824C271.408 235.557 270.897 235.404 270.372 235.377C269.703 235.266 269.107 235.191 268.512 235.005ZM330.028 181.879C330.559 181.918 331.074 182.077 331.534 182.344C331.941 182.583 332.279 182.922 332.517 183.329C332.755 183.737 332.884 184.198 332.892 184.669C332.897 185.389 333.11 186.092 333.507 186.693C333.903 187.294 334.465 187.767 335.125 188.055C335.754 188.317 336.448 188.382 337.115 188.241C337.71 188.129 338.305 188.055 338.975 187.887C338.38 187.72 337.785 187.646 337.115 187.534C336.591 187.493 336.085 187.32 335.645 187.032C335.247 186.772 334.92 186.416 334.696 185.997C334.472 185.577 334.357 185.108 334.362 184.632C334.337 183.909 334.102 183.21 333.686 182.618C333.27 182.027 332.69 181.57 332.018 181.302C331.379 181.079 330.691 181.034 330.028 181.172C329.432 181.284 328.837 181.358 328.261 181.526C328.856 181.693 329.451 181.768 330.028 181.879ZM332.26 215.976C331.859 216.324 331.381 216.573 330.865 216.701C330.413 216.824 329.937 216.826 329.483 216.709C329.03 216.592 328.615 216.358 328.279 216.032C327.769 215.521 327.12 215.17 326.413 215.021C325.706 214.872 324.972 214.933 324.298 215.195C323.671 215.464 323.134 215.91 322.755 216.478C322.42 216.98 322.048 217.445 321.75 217.985C322.289 217.687 322.754 217.315 323.257 216.98C323.664 216.649 324.141 216.413 324.652 216.292C325.118 216.194 325.602 216.215 326.057 216.355C326.513 216.495 326.926 216.749 327.256 217.092C327.635 217.478 328.096 217.773 328.605 217.954C329.114 218.136 329.658 218.199 330.195 218.14C330.733 218.081 331.25 217.901 331.707 217.613C332.165 217.325 332.551 216.937 332.837 216.478C333.171 215.976 333.543 215.492 333.841 214.953C333.246 215.269 332.781 215.641 332.279 215.976H332.26ZM308.487 176.206C308.081 176.551 307.605 176.805 307.092 176.95C306.635 177.064 306.157 177.061 305.701 176.941C305.246 176.82 304.828 176.587 304.488 176.261L304.023 175.852C303.669 176.206 303.334 176.559 303 176.931C303.177 177.039 303.34 177.171 303.483 177.322C304.011 177.818 304.673 178.149 305.387 178.275C306.1 178.401 306.835 178.315 307.501 178.029C308.112 177.738 308.628 177.28 308.989 176.708C309.324 176.206 309.696 175.741 309.994 175.201C309.566 175.48 309.008 175.871 308.506 176.206H308.487ZM298.61 208.963C298.574 209.492 298.421 210.007 298.163 210.47C297.922 210.874 297.582 211.21 297.175 211.448C296.769 211.685 296.309 211.816 295.838 211.828C295.115 211.829 294.408 212.041 293.804 212.437C293.199 212.833 292.723 213.397 292.434 214.06C292.182 214.685 292.118 215.37 292.248 216.032C292.378 216.627 292.434 217.222 292.601 217.892C292.769 217.297 292.843 216.701 292.973 216.032C293.023 215.512 293.189 215.01 293.457 214.562C293.718 214.166 294.074 213.842 294.494 213.621C294.914 213.4 295.382 213.288 295.857 213.297C296.583 213.276 297.286 213.043 297.881 212.626C298.476 212.21 298.936 211.628 299.205 210.953C299.421 210.313 299.466 209.627 299.335 208.963C299.205 208.368 299.13 207.773 298.963 207.103C298.796 207.773 298.74 208.368 298.61 208.963ZM323.647 242.279C323.62 242.809 323.467 243.326 323.201 243.785C322.962 244.192 322.623 244.53 322.216 244.768C321.809 245.006 321.347 245.135 320.876 245.143C320.158 245.146 319.457 245.357 318.856 245.75C318.255 246.142 317.781 246.701 317.49 247.357C317.224 247.985 317.153 248.678 317.286 249.347C317.416 249.942 317.49 250.538 317.658 251.207C317.825 250.612 317.9 250.017 318.011 249.347C318.059 248.824 318.231 248.32 318.513 247.878C318.771 247.479 319.128 247.153 319.548 246.932C319.968 246.71 320.438 246.6 320.913 246.613C321.636 246.588 322.336 246.353 322.927 245.937C323.518 245.521 323.976 244.941 324.243 244.269C324.466 243.63 324.511 242.942 324.373 242.279C324.261 241.683 324.187 241.088 324.019 240.418C323.852 241.088 323.778 241.683 323.647 242.279Z" fill="white"/>
<path d="M330.344 238.484C311.426 238 292.452 238.837 273.535 240.047C268.177 240.406 262.832 240.877 257.5 241.46C257.351 241.46 257.333 241.702 257.5 241.702C266.95 241.702 276.399 241.386 285.849 241.107C295.298 240.828 304.823 240.437 314.291 239.898C319.648 239.582 324.987 239.265 330.325 238.837C330.567 238.819 330.586 238.484 330.344 238.484Z" fill="#263238"/>
<path d="M264.42 400.987H487.639C490.094 396.486 453.487 200.89 378.187 145.81C361.446 133.608 331.851 141.458 323.61 153.344C282.24 213.055 264.42 400.987 264.42 400.987Z" fill="#1BFF07"/>
<path d="M359.121 235.005C359.716 234.838 360.311 234.782 360.981 234.652C361.499 234.538 362.036 234.542 362.552 234.662C363.069 234.783 363.552 235.018 363.966 235.35C364.38 235.682 364.714 236.102 364.944 236.58C365.174 237.058 365.295 237.581 365.296 238.112C365.286 238.588 365.398 239.06 365.623 239.48C365.848 239.9 366.178 240.256 366.58 240.511C367.023 240.794 367.526 240.966 368.049 241.014C368.645 241.125 369.24 241.2 369.909 241.367C369.314 241.534 368.719 241.609 368.049 241.739C367.38 241.872 366.687 241.801 366.059 241.534C365.399 241.247 364.837 240.773 364.441 240.173C364.045 239.572 363.831 238.869 363.827 238.149C363.822 237.677 363.694 237.214 363.456 236.806C363.218 236.398 362.878 236.06 362.469 235.824C362.017 235.555 361.506 235.402 360.981 235.377C360.311 235.266 359.79 235.191 359.121 235.005ZM393.813 353.07C394.338 353.108 394.847 353.267 395.301 353.535C395.708 353.768 396.048 354.103 396.286 354.508C396.524 354.912 396.653 355.372 396.659 355.841C396.66 356.564 396.871 357.271 397.268 357.876C397.664 358.48 398.228 358.956 398.891 359.245C399.522 359.498 400.214 359.562 400.881 359.431C401.476 359.32 402.072 359.245 402.741 359.078C402.146 358.911 401.551 358.836 400.881 358.706C400.358 358.673 399.852 358.506 399.412 358.222C399.013 357.963 398.687 357.607 398.462 357.187C398.238 356.768 398.123 356.298 398.128 355.823C398.118 355.096 397.889 354.39 397.471 353.796C397.053 353.202 396.465 352.748 395.784 352.493C395.154 352.259 394.468 352.214 393.813 352.363C393.217 352.474 392.622 352.549 391.952 352.716C392.622 352.902 393.273 352.977 393.813 353.088V353.07ZM434.736 241.739C435.261 241.766 435.771 241.919 436.224 242.185C436.633 242.422 436.973 242.76 437.212 243.168C437.45 243.576 437.577 244.039 437.582 244.511C437.587 245.23 437.8 245.933 438.196 246.534C438.593 247.135 439.155 247.608 439.814 247.896C440.442 248.163 441.136 248.235 441.805 248.101C442.4 247.971 442.995 247.896 443.665 247.729C443.07 247.561 442.474 247.487 441.805 247.375C441.281 247.331 440.776 247.159 440.335 246.873C439.933 246.617 439.603 246.262 439.379 245.842C439.154 245.421 439.041 244.95 439.052 244.474C439.05 243.943 438.93 243.42 438.7 242.942C438.469 242.464 438.135 242.043 437.721 241.712C437.307 241.38 436.824 241.145 436.308 241.024C435.791 240.903 435.254 240.9 434.736 241.014C434.141 241.144 433.546 241.2 432.876 241.367C433.583 241.553 434.197 241.627 434.773 241.758L434.736 241.739ZM330.028 181.879C330.559 181.918 331.074 182.077 331.534 182.344C331.941 182.583 332.279 182.922 332.517 183.329C332.755 183.737 332.884 184.198 332.892 184.669C332.897 185.389 333.11 186.092 333.507 186.693C333.903 187.294 334.465 187.767 335.124 188.055C335.754 188.317 336.448 188.382 337.115 188.241C337.71 188.129 338.305 188.055 338.975 187.887C338.38 187.72 337.784 187.646 337.115 187.534C336.591 187.493 336.085 187.32 335.645 187.032C335.247 186.772 334.92 186.416 334.696 185.997C334.471 185.577 334.357 185.108 334.362 184.632C334.337 183.909 334.102 183.21 333.686 182.618C333.27 182.027 332.69 181.57 332.018 181.302C331.379 181.079 330.691 181.034 330.028 181.172C329.432 181.284 328.837 181.358 328.26 181.526C328.856 181.693 329.451 181.767 330.028 181.879ZM394.482 180.54C395.011 180.576 395.526 180.728 395.989 180.986C396.393 181.228 396.729 181.568 396.967 181.974C397.204 182.381 397.335 182.841 397.347 183.311C397.348 184.034 397.56 184.741 397.956 185.346C398.352 185.95 398.916 186.426 399.579 186.716C400.211 186.968 400.902 187.032 401.569 186.902C402.146 186.771 402.741 186.697 403.337 186.548C402.741 186.381 402.146 186.306 401.569 186.176C401.043 186.129 400.535 185.963 400.081 185.692C399.685 185.432 399.361 185.075 399.14 184.655C398.919 184.236 398.807 183.767 398.816 183.293C398.795 182.567 398.562 181.863 398.145 181.268C397.729 180.673 397.147 180.213 396.473 179.945C395.833 179.721 395.145 179.676 394.482 179.814C393.887 179.945 393.292 180.019 392.622 180.186C393.273 180.335 393.906 180.41 394.501 180.54H394.482ZM314.216 284.709C314.745 284.745 315.26 284.897 315.723 285.155C316.125 285.398 316.459 285.738 316.693 286.145C316.927 286.552 317.054 287.011 317.062 287.48C317.063 288.203 317.275 288.91 317.672 289.515C318.068 290.119 318.632 290.595 319.294 290.885C319.926 291.137 320.617 291.201 321.285 291.071C321.88 290.959 322.475 290.885 323.145 290.717C322.55 290.55 321.954 290.475 321.285 290.345C320.763 290.304 320.26 290.138 319.815 289.861C319.417 289.602 319.09 289.246 318.866 288.826C318.642 288.407 318.527 287.938 318.532 287.462C318.524 286.735 318.296 286.027 317.878 285.433C317.459 284.838 316.87 284.385 316.188 284.132C315.558 283.897 314.872 283.852 314.216 284.002C313.621 284.114 313.026 284.188 312.356 284.355C313.044 284.448 313.64 284.523 314.235 284.634L314.216 284.709ZM384.493 392.598C385.023 392.631 385.538 392.784 386 393.045C386.404 393.286 386.74 393.626 386.978 394.033C387.215 394.439 387.346 394.899 387.358 395.37C387.37 396.076 387.583 396.764 387.971 397.354C388.36 397.943 388.909 398.41 389.553 398.699C390.184 398.952 390.876 399.016 391.543 398.885C392.138 398.755 392.734 398.681 393.403 398.513C392.808 398.346 392.213 398.29 391.543 398.16C391.019 398.119 390.513 397.946 390.074 397.658C389.674 397.404 389.346 397.051 389.122 396.634C388.897 396.218 388.783 395.75 388.79 395.277C388.788 394.744 388.668 394.218 388.437 393.738C388.205 393.258 387.87 392.836 387.454 392.502C387.038 392.168 386.554 391.932 386.035 391.81C385.516 391.689 384.977 391.684 384.456 391.798C383.861 391.928 383.284 392.003 382.596 392.17C383.34 392.282 383.972 392.356 384.512 392.487L384.493 392.598ZM349.894 334.654C350.425 334.681 350.941 334.834 351.401 335.101C351.808 335.338 352.145 335.677 352.38 336.085C352.615 336.493 352.739 336.955 352.74 337.426C352.745 338.146 352.958 338.848 353.354 339.449C353.751 340.05 354.313 340.523 354.972 340.811C355.6 341.077 356.294 341.149 356.963 341.016C357.558 340.886 358.153 340.811 358.823 340.644C358.228 340.476 357.632 340.402 356.963 340.29C356.44 340.243 355.936 340.07 355.493 339.788C355.076 339.53 354.736 339.164 354.51 338.728C354.284 338.293 354.18 337.804 354.21 337.314C354.205 336.783 354.082 336.259 353.85 335.781C353.618 335.304 353.282 334.884 352.866 334.552C352.451 334.221 351.967 333.986 351.45 333.865C350.932 333.745 350.395 333.741 349.876 333.854C349.28 333.966 348.685 334.04 348.015 334.208C348.722 334.338 349.317 334.412 349.913 334.543L349.894 334.654ZM270.651 394.049C270.128 394.001 269.625 393.829 269.182 393.547C268.779 393.293 268.45 392.937 268.228 392.516C268.006 392.095 267.899 391.623 267.917 391.147C267.891 390.468 267.68 389.809 267.306 389.242C266.932 388.675 266.41 388.221 265.796 387.929C265.796 388.413 265.685 388.859 265.647 389.306C265.897 389.547 266.094 389.836 266.228 390.156C266.363 390.475 266.431 390.819 266.429 391.166C266.433 391.886 266.647 392.589 267.043 393.189C267.439 393.79 268.001 394.263 268.661 394.551C269.289 394.817 269.982 394.889 270.651 394.756C271.246 394.626 271.842 394.551 272.511 394.384C271.86 394.123 271.265 394.049 270.67 393.937L270.651 394.049ZM285.867 345.183C286.398 345.21 286.914 345.363 287.374 345.629C287.781 345.868 288.119 346.207 288.357 346.614C288.594 347.021 288.724 347.483 288.732 347.954C288.737 348.674 288.95 349.377 289.346 349.978C289.742 350.579 290.305 351.052 290.964 351.34C291.592 351.607 292.286 351.678 292.955 351.544C293.55 351.414 294.126 351.34 294.722 351.172C294.126 351.005 293.55 350.931 292.955 350.819C292.43 350.778 291.925 350.605 291.485 350.317C291.08 350.064 290.749 349.709 290.524 349.288C290.298 348.867 290.187 348.394 290.202 347.917C290.177 347.194 289.942 346.494 289.526 345.903C289.109 345.312 288.53 344.855 287.858 344.587C287.218 344.364 286.53 344.319 285.867 344.457C285.272 344.587 284.677 344.643 284.007 344.811C284.695 344.866 285.384 344.941 285.886 345.071L285.867 345.183ZM379.359 286.16C379.89 286.201 380.404 286.36 380.866 286.625C381.272 286.864 381.611 287.203 381.848 287.61C382.086 288.017 382.215 288.479 382.224 288.95C382.228 289.67 382.442 290.373 382.838 290.974C383.234 291.574 383.796 292.048 384.456 292.335C385.079 292.596 385.767 292.661 386.428 292.521C387.023 292.41 387.618 292.335 388.288 292.168C387.693 292.001 387.097 291.926 386.428 291.815C385.905 291.767 385.401 291.595 384.958 291.312C384.562 291.052 384.238 290.695 384.017 290.275C383.796 289.856 383.684 289.387 383.693 288.913C383.668 288.19 383.434 287.49 383.017 286.899C382.601 286.307 382.021 285.85 381.349 285.583C380.71 285.359 380.022 285.314 379.359 285.453C378.764 285.564 378.169 285.639 377.499 285.806C378.187 285.862 378.782 285.937 379.378 286.048L379.359 286.16ZM461.206 365.514C461.729 365.55 462.238 365.702 462.694 365.961C463.101 366.199 463.439 366.539 463.677 366.946C463.915 367.353 464.044 367.814 464.052 368.286C464.053 369.009 464.265 369.716 464.661 370.32C465.058 370.925 465.622 371.401 466.284 371.69C466.916 371.942 467.607 372.007 468.275 371.876C468.87 371.746 469.465 371.671 470.135 371.504C469.54 371.336 468.944 371.281 468.275 371.15C467.751 371.106 467.246 370.934 466.805 370.648C466.406 370.394 466.078 370.042 465.853 369.625C465.629 369.208 465.514 368.741 465.522 368.267C465.523 367.735 465.405 367.21 465.176 366.729C464.947 366.249 464.613 365.827 464.198 365.493C463.784 365.159 463.3 364.922 462.782 364.8C462.264 364.678 461.726 364.674 461.206 364.789C460.611 364.919 460.016 364.993 459.346 365.161C460.071 365.217 460.667 365.217 461.262 365.403L461.206 365.514ZM428.691 317.15C429.22 317.183 429.735 317.336 430.197 317.596C430.601 317.838 430.938 318.178 431.175 318.584C431.413 318.991 431.543 319.451 431.555 319.922C431.556 320.645 431.768 321.352 432.164 321.956C432.561 322.561 433.125 323.037 433.787 323.326C434.419 323.578 435.11 323.643 435.778 323.512C436.373 323.382 436.968 323.326 437.638 323.158C437.043 322.991 436.447 322.917 435.778 322.786C435.255 322.751 434.75 322.584 434.308 322.303C433.91 322.043 433.583 321.687 433.359 321.267C433.134 320.848 433.02 320.379 433.025 319.903C433 319.18 432.765 318.48 432.349 317.889C431.932 317.298 431.353 316.841 430.681 316.573C430.043 316.343 429.355 316.292 428.691 316.425C428.095 316.555 427.519 316.629 426.923 316.797C427.574 316.852 428.151 316.852 428.746 316.964L428.691 317.15ZM332.223 216.162C331.821 216.51 331.343 216.759 330.827 216.887C330.375 217.01 329.899 217.012 329.446 216.895C328.993 216.778 328.578 216.544 328.242 216.218C327.731 215.707 327.083 215.356 326.376 215.207C325.669 215.058 324.934 215.119 324.261 215.381C323.633 215.65 323.097 216.096 322.717 216.664C322.382 217.166 322.01 217.631 321.713 218.171C322.252 217.873 322.717 217.501 323.219 217.166C323.627 216.835 324.103 216.599 324.615 216.478C325.081 216.38 325.565 216.401 326.02 216.541C326.476 216.681 326.888 216.935 327.219 217.278C327.597 217.664 328.059 217.959 328.568 218.14C329.077 218.322 329.621 218.385 330.158 218.326C330.695 218.267 331.212 218.087 331.67 217.799C332.127 217.511 332.513 217.123 332.799 216.664C333.134 216.162 333.506 215.678 333.804 215.139C333.246 215.269 332.781 215.641 332.278 215.976L332.223 216.162ZM428.467 285.23C428.071 285.58 427.6 285.834 427.091 285.974C426.634 286.088 426.156 286.085 425.7 285.965C425.245 285.844 424.827 285.611 424.487 285.285C423.976 284.781 423.329 284.436 422.626 284.291C421.923 284.145 421.193 284.207 420.524 284.467C419.898 284.73 419.361 285.169 418.98 285.732C418.646 286.234 418.274 286.699 417.976 287.239C418.515 286.941 418.98 286.569 419.483 286.234C419.888 285.899 420.365 285.663 420.878 285.546C421.341 285.447 421.822 285.469 422.275 285.609C422.728 285.749 423.137 286.003 423.464 286.346C423.844 286.728 424.306 287.02 424.814 287.2C425.323 287.379 425.865 287.442 426.402 287.383C426.938 287.324 427.454 287.145 427.911 286.859C428.369 286.573 428.756 286.188 429.044 285.732C429.379 285.23 429.751 284.765 430.048 284.225C429.453 284.486 428.988 284.858 428.467 285.23ZM368.44 156.339C368.044 156.688 367.573 156.943 367.063 157.083C366.607 157.207 366.126 157.208 365.669 157.087C365.212 156.967 364.795 156.728 364.459 156.395C363.947 155.887 363.297 155.539 362.59 155.394C361.884 155.249 361.15 155.312 360.478 155.576C359.852 155.839 359.315 156.279 358.935 156.841C358.6 157.362 358.228 157.827 357.93 158.367C358.469 158.069 358.953 157.697 359.455 157.362C359.854 157.028 360.325 156.792 360.832 156.674C361.297 156.575 361.779 156.594 362.234 156.731C362.689 156.868 363.103 157.117 363.436 157.455C363.812 157.845 364.271 158.144 364.78 158.329C365.289 158.515 365.834 158.581 366.372 158.523C366.91 158.466 367.429 158.286 367.887 157.998C368.345 157.71 368.732 157.32 369.017 156.86C369.351 156.339 369.723 155.874 370.021 155.335C369.426 155.614 368.942 155.967 368.44 156.302V156.339ZM367.231 194.491C367.189 195.016 367.03 195.524 366.766 195.979C366.53 196.388 366.191 196.728 365.783 196.967C365.376 197.205 364.913 197.332 364.441 197.337C363.721 197.342 363.018 197.555 362.417 197.951C361.816 198.348 361.343 198.91 361.055 199.569C360.797 200.199 360.726 200.89 360.85 201.56C360.981 202.155 361.055 202.75 361.222 203.42C361.39 202.824 361.464 202.229 361.576 201.56C361.62 201.036 361.793 200.531 362.078 200.09C362.338 199.692 362.694 199.365 363.113 199.141C363.533 198.916 364.002 198.801 364.478 198.807C365.008 198.805 365.532 198.685 366.01 198.455C366.487 198.224 366.908 197.89 367.24 197.476C367.571 197.062 367.806 196.579 367.927 196.063C368.048 195.546 368.052 195.009 367.938 194.491C367.826 193.896 367.752 193.3 367.584 192.631C367.454 193.3 367.38 193.896 367.231 194.491ZM353.056 299.069C353.017 299.6 352.858 300.115 352.591 300.576C352.353 300.982 352.013 301.321 351.606 301.559C351.199 301.796 350.738 301.926 350.266 301.934C349.546 301.939 348.843 302.152 348.243 302.548C347.642 302.944 347.169 303.506 346.881 304.166C346.628 304.798 346.564 305.489 346.695 306.156C346.806 306.752 346.881 307.347 347.048 308.017C347.215 307.421 347.29 306.826 347.42 306.156C347.447 305.632 347.614 305.125 347.904 304.687C348.163 304.288 348.52 303.962 348.939 303.737C349.358 303.513 349.828 303.398 350.303 303.403C351.026 303.379 351.726 303.144 352.317 302.727C352.909 302.311 353.366 301.732 353.633 301.06C353.868 300.423 353.913 299.731 353.763 299.069C353.652 298.493 353.577 297.897 353.41 297.302C353.28 297.897 353.205 298.493 353.094 299.069H353.056ZM427.277 207.921H426.979C426.256 207.922 425.549 208.134 424.945 208.531C424.34 208.927 423.864 209.491 423.575 210.154C423.323 210.785 423.258 211.476 423.389 212.144C423.501 212.739 423.575 213.334 423.743 214.004C423.91 213.409 423.984 212.814 424.115 212.144C424.153 211.622 424.319 211.117 424.598 210.674C424.858 210.276 425.214 209.949 425.633 209.725C426.053 209.501 426.522 209.386 426.998 209.391C427.327 209.391 427.655 209.335 427.965 209.223L427.277 207.921ZM426.756 376.898C426.729 377.429 426.576 377.945 426.31 378.405C426.071 378.812 425.731 379.15 425.324 379.388C424.917 379.626 424.456 379.755 423.984 379.763C423.265 379.768 422.562 379.981 421.961 380.377C421.36 380.774 420.887 381.335 420.599 381.995C420.34 382.625 420.269 383.316 420.394 383.986C420.524 384.581 420.599 385.176 420.766 385.846C420.934 385.269 421.008 384.674 421.12 383.986C421.161 383.461 421.333 382.956 421.622 382.516C421.875 382.111 422.23 381.78 422.651 381.555C423.072 381.329 423.544 381.218 424.022 381.233C424.744 381.208 425.444 380.973 426.035 380.557C426.627 380.14 427.084 379.561 427.351 378.889C427.575 378.25 427.62 377.561 427.481 376.898C427.37 376.303 427.295 375.708 427.128 375.038C426.998 375.708 426.923 376.378 426.756 376.898ZM458.695 282.03C458.702 282.08 458.702 282.13 458.695 282.179C458.459 282.588 458.12 282.928 457.712 283.166C457.305 283.404 456.842 283.532 456.37 283.537C455.65 283.542 454.947 283.755 454.346 284.151C453.745 284.547 453.272 285.109 452.984 285.769C452.718 286.397 452.647 287.09 452.78 287.759C452.91 288.355 452.984 288.95 453.152 289.62C453.319 289.024 453.393 288.429 453.505 287.759C453.553 287.237 453.725 286.733 454.007 286.29C454.263 285.888 454.618 285.558 455.039 285.333C455.459 285.109 455.93 284.996 456.407 285.006C456.964 284.992 457.511 284.852 458.006 284.598C458.502 284.343 458.935 283.981 459.272 283.537L458.695 282.03ZM295.429 302.827C295.396 303.35 295.243 303.86 294.982 304.315C294.743 304.721 294.404 305.06 293.997 305.298C293.59 305.535 293.128 305.664 292.657 305.673C291.934 305.674 291.227 305.886 290.623 306.282C290.018 306.678 289.542 307.242 289.253 307.905C289.001 308.537 288.936 309.228 289.067 309.895C289.197 310.491 289.253 311.086 289.42 311.756C289.588 311.16 289.662 310.565 289.792 309.895C289.839 309.375 290.005 308.872 290.276 308.426C290.536 308.027 290.892 307.701 291.311 307.476C291.731 307.252 292.2 307.137 292.676 307.142C293.402 307.121 294.105 306.888 294.7 306.471C295.295 306.055 295.755 305.473 296.024 304.799C296.24 304.164 296.285 303.484 296.154 302.827C296.024 302.231 295.949 301.636 295.782 300.967C295.615 301.636 295.559 302.231 295.429 302.827ZM299.354 209.093L298.405 212.2C298.76 211.848 299.033 211.423 299.205 210.953C299.412 210.356 299.463 209.716 299.354 209.093ZM332.836 147.95C332.798 148.481 332.639 148.996 332.371 149.457C332.133 149.863 331.793 150.201 331.386 150.439C330.979 150.677 330.518 150.806 330.046 150.814C329.326 150.819 328.623 151.032 328.023 151.429C327.422 151.825 326.949 152.387 326.661 153.047C326.402 153.677 326.331 154.368 326.456 155.037C326.586 155.632 326.661 156.228 326.828 156.897C326.996 156.302 327.07 155.707 327.182 155.037C327.223 154.513 327.395 154.007 327.684 153.567C327.943 153.169 328.3 152.842 328.719 152.618C329.139 152.394 329.608 152.279 330.083 152.284C330.806 152.259 331.506 152.024 332.097 151.608C332.689 151.192 333.146 150.612 333.413 149.94C333.637 149.301 333.682 148.613 333.543 147.95C333.432 147.373 333.357 146.778 333.19 146.183C333.041 146.778 332.967 147.373 332.855 147.95H332.836ZM323.629 242.279C323.601 242.809 323.448 243.326 323.182 243.785C322.943 244.192 322.604 244.53 322.197 244.768C321.79 245.006 321.328 245.135 320.857 245.143C320.139 245.146 319.438 245.357 318.837 245.75C318.236 246.142 317.762 246.701 317.472 247.357C317.205 247.985 317.134 248.678 317.267 249.347C317.397 249.942 317.472 250.538 317.639 251.207C317.806 250.612 317.881 250.017 317.992 249.347C318.04 248.824 318.212 248.32 318.495 247.878C318.753 247.479 319.109 247.153 319.529 246.932C319.949 246.71 320.419 246.6 320.894 246.613C321.617 246.588 322.317 246.353 322.908 245.937C323.5 245.52 323.957 244.941 324.224 244.269C324.448 243.63 324.493 242.941 324.354 242.279C324.243 241.683 324.168 241.088 324.001 240.418C323.852 241.088 323.777 241.683 323.647 242.279H323.629ZM406.164 254.965C406.131 255.489 405.978 255.998 405.718 256.453C405.479 256.859 405.139 257.198 404.732 257.436C404.325 257.673 403.864 257.803 403.392 257.811C402.669 257.812 401.962 258.024 401.358 258.42C400.753 258.816 400.277 259.38 399.988 260.043C399.736 260.675 399.671 261.366 399.802 262.033C399.932 262.629 399.988 263.224 400.156 263.894C400.323 263.298 400.397 262.703 400.528 262.033C400.578 261.514 400.743 261.012 401.011 260.564C401.271 260.165 401.627 259.839 402.047 259.614C402.466 259.39 402.935 259.275 403.411 259.28C404.137 259.259 404.841 259.026 405.436 258.609C406.031 258.193 406.491 257.611 406.759 256.937C406.975 256.302 407.02 255.622 406.889 254.965C406.759 254.37 406.685 253.774 406.517 253.105C406.294 253.774 406.294 254.37 406.183 254.965H406.164ZM329.897 360.882C329.859 361.408 329.7 361.917 329.432 362.371C329.196 362.779 328.858 363.12 328.45 363.358C328.042 363.596 327.579 363.724 327.107 363.728C326.387 363.733 325.684 363.947 325.084 364.343C324.483 364.739 324.01 365.301 323.722 365.961C323.461 366.59 323.396 367.284 323.536 367.951C323.647 368.546 323.722 369.141 323.889 369.811C324.057 369.216 324.131 368.621 324.243 367.951C324.29 367.428 324.463 366.924 324.745 366.481C325.004 366.083 325.361 365.756 325.78 365.532C326.199 365.308 326.669 365.193 327.144 365.198C327.675 365.196 328.198 365.076 328.676 364.846C329.154 364.616 329.574 364.281 329.906 363.867C330.238 363.454 330.473 362.971 330.594 362.454C330.715 361.938 330.718 361.401 330.604 360.882C330.493 360.287 330.418 359.692 330.251 359.022C330.028 359.636 330.028 360.287 329.916 360.882H329.897ZM393.906 222.226C394.302 221.876 394.772 221.622 395.282 221.482C395.739 221.368 396.217 221.371 396.673 221.491C397.128 221.611 397.546 221.845 397.886 222.17C398.395 222.677 399.04 223.026 399.743 223.175C400.447 223.324 401.178 223.265 401.848 223.007C402.476 222.738 403.013 222.292 403.392 221.724C403.727 221.221 404.099 220.756 404.397 220.217C403.857 220.515 403.392 220.887 402.89 221.221C402.485 221.557 402.007 221.792 401.495 221.91C401.032 222.009 400.551 221.987 400.098 221.847C399.645 221.707 399.236 221.453 398.909 221.11C398.529 220.727 398.067 220.436 397.559 220.256C397.05 220.077 396.507 220.014 395.971 220.073C395.435 220.132 394.919 220.311 394.462 220.597C394.004 220.883 393.617 221.268 393.329 221.724C392.994 222.226 392.622 222.691 392.324 223.231C392.938 222.933 393.403 222.561 393.924 222.226H393.906ZM345.746 265.828C346.147 265.48 346.625 265.231 347.141 265.103C347.596 264.981 348.075 264.978 348.531 265.095C348.987 265.213 349.406 265.446 349.745 265.772C350.254 266.28 350.899 266.629 351.603 266.777C352.306 266.926 353.037 266.867 353.707 266.609C354.335 266.34 354.872 265.894 355.251 265.326C355.586 264.824 355.958 264.359 356.256 263.819C355.716 264.117 355.251 264.489 354.749 264.824C354.344 265.159 353.866 265.395 353.354 265.512C352.888 265.609 352.404 265.586 351.949 265.446C351.494 265.307 351.081 265.054 350.75 264.712C350.371 264.326 349.91 264.032 349.401 263.85C348.892 263.668 348.348 263.605 347.811 263.664C347.273 263.723 346.756 263.903 346.299 264.191C345.841 264.479 345.455 264.867 345.169 265.326C344.835 265.828 344.462 266.312 344.165 266.851C344.797 266.628 345.262 266.163 345.765 265.828H345.746ZM313.137 330.078C313.538 329.735 314.007 329.482 314.514 329.334C314.971 329.22 315.449 329.223 315.905 329.343C316.36 329.463 316.777 329.697 317.118 330.022C317.631 330.53 318.28 330.878 318.987 331.023C319.694 331.168 320.427 331.105 321.099 330.841C321.725 330.578 322.262 330.139 322.643 329.576C322.978 329.074 323.35 328.59 323.647 328.051C323.108 328.367 322.643 328.72 322.122 329.055C321.733 329.403 321.258 329.641 320.745 329.743C320.281 329.85 319.797 329.833 319.34 329.697C318.884 329.56 318.47 329.307 318.141 328.962C317.613 328.466 316.952 328.134 316.238 328.009C315.524 327.883 314.789 327.969 314.123 328.255C313.512 328.546 312.996 329.004 312.635 329.576C312.3 330.078 311.928 330.543 311.631 331.083C312.189 330.785 312.654 330.413 313.156 330.078H313.137ZM327.256 396.839C327.653 396.495 328.124 396.247 328.632 396.114C329.087 395.992 329.566 395.989 330.023 396.106C330.479 396.224 330.897 396.457 331.237 396.783C331.747 397.294 332.396 397.646 333.103 397.794C333.809 397.943 334.544 397.883 335.217 397.621C335.845 397.351 336.382 396.905 336.761 396.337C337.096 395.835 337.468 395.37 337.766 394.83C337.226 395.128 336.761 395.5 336.241 395.835C335.842 396.169 335.371 396.405 334.864 396.523C334.398 396.623 333.914 396.603 333.458 396.463C333.002 396.323 332.589 396.068 332.26 395.723C331.881 395.337 331.42 395.043 330.911 394.861C330.402 394.679 329.858 394.616 329.321 394.675C328.783 394.734 328.266 394.914 327.809 395.202C327.351 395.49 326.965 395.878 326.679 396.337C326.345 396.839 325.972 397.323 325.675 397.844C326.307 397.528 326.754 397.156 327.256 396.839ZM390.371 323.493C390.767 323.143 391.238 322.889 391.748 322.749C392.205 322.635 392.683 322.638 393.138 322.758C393.594 322.878 394.011 323.112 394.352 323.437C394.865 323.945 395.514 324.293 396.221 324.438C396.928 324.583 397.661 324.52 398.333 324.256C398.954 323.993 399.485 323.553 399.858 322.991C400.193 322.489 400.565 322.005 400.881 321.466C400.342 321.782 399.858 322.135 399.356 322.47C398.96 322.819 398.478 323.057 397.961 323.158C397.499 323.265 397.017 323.249 396.564 323.112C396.11 322.975 395.7 322.722 395.375 322.377C394.847 321.881 394.185 321.549 393.472 321.424C392.758 321.298 392.023 321.384 391.357 321.67C390.737 321.955 390.214 322.414 389.85 322.991C389.516 323.493 389.162 323.958 388.846 324.498C389.385 324.181 389.869 323.809 390.371 323.475V323.493ZM433.806 350.075C434.207 349.732 434.676 349.478 435.182 349.331C435.639 349.216 436.118 349.219 436.573 349.34C437.029 349.46 437.446 349.694 437.787 350.019C438.299 350.527 438.949 350.875 439.655 351.02C440.362 351.165 441.096 351.102 441.767 350.837C442.394 350.575 442.931 350.135 443.311 349.573C443.646 349.07 444.018 348.605 444.316 348.066C443.776 348.363 443.311 348.736 442.791 349.07C442.392 349.405 441.921 349.641 441.414 349.759C440.948 349.859 440.464 349.838 440.008 349.698C439.552 349.558 439.139 349.304 438.81 348.959C438.431 348.573 437.97 348.278 437.461 348.097C436.952 347.915 436.408 347.851 435.871 347.91C435.333 347.97 434.816 348.15 434.359 348.438C433.901 348.726 433.515 349.114 433.229 349.573C432.895 350.075 432.522 350.54 432.225 351.079C432.82 350.763 433.304 350.335 433.806 350.056V350.075ZM360.739 370.239C361.137 369.893 361.607 369.639 362.115 369.495C362.572 369.381 363.051 369.384 363.506 369.504C363.961 369.624 364.379 369.858 364.72 370.183C365.232 370.691 365.882 371.039 366.588 371.184C367.295 371.329 368.029 371.266 368.7 371.002C369.327 370.739 369.863 370.299 370.244 369.737C370.579 369.234 370.933 368.751 371.249 368.211C370.709 368.528 370.226 368.9 369.723 369.235C369.32 369.573 368.842 369.809 368.328 369.923C367.865 370.022 367.384 370 366.931 369.86C366.479 369.72 366.069 369.466 365.743 369.123C365.215 368.627 364.553 368.295 363.839 368.17C363.125 368.044 362.391 368.13 361.725 368.416C361.118 368.713 360.604 369.17 360.237 369.737C359.902 370.239 359.53 370.704 359.214 371.243C359.79 370.946 360.237 370.574 360.739 370.239ZM454.975 396.839C455.372 396.495 455.843 396.247 456.351 396.114C456.806 395.992 457.285 395.989 457.741 396.106C458.198 396.224 458.616 396.457 458.955 396.783C459.466 397.294 460.114 397.646 460.821 397.794C461.528 397.943 462.263 397.883 462.936 397.621C463.564 397.351 464.1 396.905 464.48 396.337C464.815 395.835 465.187 395.37 465.485 394.83C464.945 395.128 464.48 395.5 463.959 395.835C463.561 396.169 463.089 396.405 462.583 396.523C462.116 396.622 461.633 396.6 461.177 396.46C460.721 396.32 460.309 396.066 459.978 395.723C459.6 395.337 459.138 395.043 458.629 394.861C458.12 394.679 457.576 394.616 457.039 394.675C456.502 394.734 455.985 394.914 455.527 395.202C455.07 395.49 454.684 395.878 454.398 396.337C454.063 396.839 453.691 397.323 453.393 397.844C454.007 397.528 454.472 397.156 454.975 396.839ZM471.716 324.591C471.271 324.459 470.868 324.216 470.544 323.884C470.165 323.498 469.704 323.203 469.195 323.022C468.686 322.84 468.142 322.776 467.605 322.836C467.068 322.895 466.551 323.075 466.093 323.363C465.636 323.651 465.249 324.039 464.964 324.498C464.629 325 464.257 325.465 463.959 326.004C464.499 325.707 464.964 325.335 465.466 325C465.867 324.657 466.336 324.403 466.842 324.256C467.299 324.141 467.778 324.145 468.233 324.265C468.688 324.385 469.106 324.619 469.447 324.944C470.132 325.634 471.06 326.028 472.032 326.042L471.716 324.591ZM293.42 379.447C293.821 379.104 294.29 378.85 294.796 378.703C295.253 378.588 295.731 378.591 296.187 378.712C296.642 378.832 297.06 379.066 297.4 379.391C297.911 379.902 298.559 380.253 299.266 380.402C299.973 380.55 300.708 380.49 301.381 380.228C302.009 379.958 302.545 379.513 302.925 378.945C303.26 378.442 303.632 377.977 303.93 377.438C303.39 377.735 302.925 378.107 302.404 378.442C302.006 378.777 301.534 379.012 301.028 379.131C300.561 379.229 300.078 379.207 299.622 379.068C299.167 378.928 298.754 378.674 298.423 378.331C298.045 377.945 297.583 377.65 297.074 377.469C296.565 377.287 296.021 377.223 295.484 377.282C294.947 377.342 294.43 377.522 293.972 377.81C293.515 378.098 293.129 378.486 292.843 378.945C292.508 379.447 292.136 379.93 291.839 380.451C292.527 380.098 292.992 379.763 293.494 379.428L293.42 379.447ZM288.044 267.372C288.435 267.016 288.908 266.76 289.42 266.628C289.877 266.504 290.357 266.503 290.814 266.624C291.272 266.745 291.689 266.983 292.025 267.316C292.537 267.824 293.186 268.172 293.893 268.317C294.6 268.462 295.334 268.399 296.005 268.135C296.627 267.872 297.157 267.432 297.531 266.87C297.865 266.349 298.237 265.884 298.554 265.345C298.014 265.642 297.531 266.014 297.028 266.349C296.635 266.701 296.152 266.939 295.633 267.037C295.171 267.14 294.691 267.122 294.238 266.986C293.785 266.849 293.375 266.597 293.048 266.256C292.52 265.76 291.858 265.428 291.144 265.303C290.43 265.177 289.695 265.263 289.03 265.549C288.415 265.833 287.893 266.284 287.523 266.851C287.188 267.372 286.835 267.837 286.518 268.377C287.132 268.06 287.616 267.688 288.118 267.354L288.044 267.372Z" fill="white"/>
<path d="M299.893 205.373C297.847 212.813 295.863 220.254 293.941 227.695C294.182 224.439 294.536 221.203 294.964 217.966C294.964 217.78 294.703 217.687 294.647 217.966C293.855 221.981 293.413 226.058 293.327 230.15C291.02 239.141 288.862 248.163 286.853 257.215C283.04 274.571 279.636 292.075 276.808 309.616C275.227 319.531 274 329.483 272.307 339.379C272.307 339.565 272.567 339.639 272.605 339.379C274.148 330.617 276.213 321.912 278.185 313.206C280.157 304.501 281.905 295.907 283.765 287.257C287.374 269.827 291.206 252.453 294.778 235.042C296.805 225.221 298.684 215.38 300.712 205.577C300.725 205.524 300.728 205.468 300.72 205.413C300.711 205.358 300.693 205.306 300.664 205.258C300.606 205.162 300.513 205.093 300.405 205.066C300.296 205.039 300.181 205.056 300.085 205.113C299.989 205.171 299.92 205.264 299.893 205.373Z" fill="#263238"/>
<path d="M291.169 89.5039C293.643 103.046 286.016 115.788 274.13 117.964C262.243 120.141 250.617 110.914 248.088 97.3724C245.558 83.8304 253.222 71.0697 265.108 68.9119C276.994 66.7541 288.695 75.9619 291.169 89.5039Z" fill="#455A64"/>
<path d="M298.293 89.0756C301.046 104.143 292.564 118.317 279.357 120.698C266.15 123.079 253.184 112.867 250.431 97.7997C247.678 82.7324 256.161 68.558 269.368 66.177C282.575 63.796 295.54 74.0083 298.293 89.0756Z" fill="#C7C7C7"/>
<path d="M335.999 195.402C349.466 195.402 366.598 170.551 371.342 152.619C371.658 151.391 356.684 109.221 354.6 100.534C354.173 98.6742 303.465 126.911 303.465 126.911C303.465 126.911 313.212 143.783 316.783 158.906C317.118 160.264 322.978 195.458 335.999 195.402Z" fill="#F8D197"/>
<path d="M323.052 162.198C321.293 162.687 319.494 163.017 317.676 163.184C317.453 162.124 317.267 161.231 317.137 160.543C317.144 160.512 317.144 160.48 317.137 160.45C317.146 160.369 317.146 160.288 317.137 160.208C317.137 159.947 317.044 159.668 316.969 159.389C316.978 159.334 316.978 159.277 316.969 159.222V158.999C316.146 155.619 315.127 152.29 313.919 149.028C311.55 142.713 308.779 136.555 305.622 130.594C305.362 130.098 305.12 129.652 304.897 129.255L303.706 127.06L305.046 126.297L306.906 125.311L308.096 124.66L309.566 123.842L310.924 123.098L311.184 122.949L313.044 121.982L313.454 121.758L315.221 120.791L316.151 120.289L319.015 118.726L321.21 117.536L323.071 116.531L329.432 113.109L331.478 111.992L338.826 108.123L340.407 107.305L341.189 106.654L342.435 106.003L345.113 104.645L346.75 103.826C347.55 103.417 348.294 103.064 349.001 102.729C349.355 102.543 349.708 102.394 350.024 102.245C350.992 101.78 351.884 101.408 352.517 101.129L352.963 100.943C353.596 115.676 352.349 154.348 323.052 162.198Z" fill="#263238"/>
<path d="M339.44 35.354C351.438 52.2628 359.623 109.891 350.285 126.502C336.743 150.535 305.548 162.794 282.854 144.452C260.867 126.688 251.547 51.4443 262.82 35.3726C279.413 11.7857 321.694 10.4092 339.44 35.354Z" fill="#F8D197"/>
<path d="M296.545 86.1923C296.545 86.0249 296.861 86.3225 296.88 86.4899C297.326 90.3777 298.498 94.7676 302.2 95.5489C302.311 95.5489 302.33 95.7721 302.2 95.7721C297.735 95.8465 296.247 90.0056 296.545 86.1923Z" fill="#263238"/>
<path d="M299.316 81.6721C305.492 80.2956 307.817 92.833 302.088 94.0235C296.359 95.214 294.145 82.844 299.316 81.6721Z" fill="#263238"/>
<path d="M275.264 90.8054C275.264 90.6566 275.004 91.0286 275.023 91.196C275.878 95.028 276.195 99.5482 272.939 101.483C272.846 101.483 272.939 101.743 272.939 101.706C277.162 100.311 276.678 94.3025 275.264 90.8054Z" fill="#263238"/>
<path d="M271.079 87.4197C264.792 88.108 266.615 100.627 272.456 99.9944C278.297 99.3619 276.343 86.8431 271.079 87.4197Z" fill="#263238"/>
<path d="M303.167 75.0322C301.442 74.8608 299.728 74.5938 298.033 74.2323C296.174 74.1982 294.38 73.5434 292.936 72.3722C292.555 71.9192 292.333 71.3543 292.303 70.7633C292.273 70.1724 292.436 69.5877 292.769 69.0983C293.584 68.2456 294.611 67.6243 295.745 67.2975C296.879 66.9708 298.079 66.9503 299.223 67.2381C301.634 67.4661 303.874 68.5795 305.511 70.3632C305.867 70.7889 306.092 71.3097 306.156 71.8613C306.22 72.4129 306.122 72.9713 305.873 73.4676C305.623 73.964 305.235 74.3765 304.754 74.6545C304.273 74.9325 303.721 75.0638 303.167 75.0322Z" fill="#263238"/>
<path d="M265.089 82.0438C266.696 81.3957 268.267 80.663 269.796 79.8488C271.561 79.2937 273.096 78.1766 274.167 76.6679C274.409 76.128 274.466 75.523 274.328 74.9476C274.19 74.3721 273.865 73.8585 273.404 73.4871C272.387 72.8884 271.227 72.5728 270.047 72.5728C268.866 72.5728 267.707 72.8884 266.689 73.4871C264.425 74.3633 262.577 76.0649 261.518 78.2491C261.302 78.7576 261.239 79.3181 261.336 79.8621C261.433 80.406 261.686 80.9099 262.065 81.3123C262.444 81.7146 262.931 81.9981 263.468 82.128C264.005 82.2579 264.569 82.2286 265.089 82.0438Z" fill="#263238"/>
<path d="M307.706 121.108C306.962 122.187 306.273 123.6 304.897 123.972C303.455 124.217 301.978 124.154 300.563 123.786C300.534 123.774 300.501 123.773 300.471 123.783C300.441 123.792 300.415 123.813 300.399 123.841C300.383 123.868 300.378 123.9 300.384 123.931C300.39 123.962 300.407 123.99 300.433 124.01C301.125 124.665 301.981 125.12 302.912 125.326C303.842 125.533 304.811 125.483 305.715 125.181C306.463 124.833 307.089 124.27 307.517 123.565C307.944 122.859 308.152 122.043 308.115 121.219C308.134 120.978 307.817 120.959 307.706 121.108Z" fill="#263238"/>
<path d="M301.511 110.375C300.813 112.077 299.769 113.617 298.447 114.897C297.125 116.178 295.553 117.171 293.829 117.815C292.334 118.405 290.761 118.775 289.16 118.913C288.85 118.94 288.539 118.94 288.23 118.913C287.945 118.932 287.659 118.932 287.374 118.913C287.161 118.913 286.953 118.845 286.782 118.717C286.611 118.59 286.486 118.41 286.425 118.206C286.415 118.076 286.415 117.945 286.425 117.815V117.48C285.793 114.523 285.235 110.04 285.235 110.04C284.249 110.784 279.189 114.299 278.985 112.737C277.348 99.7158 275.525 85.3182 276.641 72.0552C276.66 71.973 276.706 71.8996 276.772 71.8471C276.838 71.7945 276.919 71.7659 277.004 71.7659C277.088 71.7659 277.17 71.7945 277.236 71.8471C277.302 71.8996 277.348 71.973 277.366 72.0552C279.431 84.4811 279.227 97.1674 281.18 109.668C282.972 108.384 284.939 107.363 287.021 106.636C287.467 106.636 287.932 115.471 288.323 116.774V116.922C293.42 116.625 296.898 114.411 301.121 110.151C301.325 109.779 301.679 109.984 301.511 110.375Z" fill="#263238"/>
<path d="M290.629 117.071C292.647 118.901 295.1 120.182 297.754 120.792C299.213 121.065 300.722 120.876 302.069 120.252C304.99 118.876 304.543 116.03 303.52 113.723C302.973 112.497 302.279 111.342 301.456 110.282C298.664 113.643 294.87 116.022 290.629 117.071Z" fill="#263238"/>
<path d="M297.754 120.735C299.214 121.009 300.722 120.82 302.069 120.196C304.99 118.819 304.543 115.973 303.52 113.667C300.265 114.634 297.438 117.48 297.754 120.735Z" fill="#FF99BA"/>
<path opacity="0.2" d="M337.282 59.5547C341.114 64.4097 349.485 76.0543 352.331 76.2031C349.392 57.4341 344.611 41.0461 337.134 32.3219C334.041 28.7189 330.315 25.7118 326.14 23.449C327.219 28.397 333.209 54.5694 337.282 59.5547Z" fill="#263238"/>
<path d="M281.366 48.1523C283.686 50.3278 286.526 51.872 289.613 52.6373C292.7 53.4026 295.932 53.3635 299 52.5237C302.142 51.6695 305.013 50.024 307.338 47.7444C309.664 45.4648 311.365 42.6272 312.282 39.5025C312.282 39.4631 312.297 39.4252 312.325 39.3973C312.353 39.3694 312.391 39.3538 312.431 39.3538C312.47 39.3538 312.508 39.3694 312.536 39.3973C312.564 39.4252 312.579 39.4631 312.579 39.5025C311.892 42.8558 310.304 45.9588 307.987 48.4787C305.671 50.9986 302.712 52.8406 299.428 53.8072C296.144 54.571 292.718 54.4575 289.492 53.4779C286.266 52.4984 283.354 50.6874 281.05 48.2267C281.065 48.2004 281.085 48.1775 281.11 48.1593C281.134 48.1412 281.162 48.1282 281.192 48.1213C281.221 48.1143 281.252 48.1135 281.282 48.1188C281.312 48.1241 281.34 48.1355 281.366 48.1523Z" fill="#263238"/>
<path d="M295.391 0.215707C306.162 -0.751576 316.69 4.08484 321.434 10.9674C324.083 14.8801 325.329 19.5748 324.968 24.2862C324.968 24.4722 324.577 24.4722 324.577 24.2862C324.344 20.18 323.013 16.2117 320.722 12.7957C318.432 9.37967 315.266 6.64116 311.556 4.86611C307.474 2.79479 302.967 1.69985 298.39 1.66757C293.812 1.63529 289.29 2.66654 285.179 4.68008C281.152 6.54771 277.926 9.79383 276.083 13.8321C275.916 14.2413 275.078 14.0739 275.209 13.6647C277.311 6.61465 285.644 1.10858 295.391 0.215707Z" fill="#263238"/>
<path d="M235.625 30.5367C236.784 25.0324 239.855 20.1163 244.293 16.6599C250.413 11.8421 257.946 11.6003 265.406 11.5259C265.61 11.5259 265.629 11.8421 265.406 11.8421C259.044 11.9351 252.589 12.4002 247.139 16.0089C242.615 18.9623 239.256 23.3932 237.633 28.5463C236.12 33.8262 236.557 39.4745 238.866 44.4581C241.175 49.4417 245.202 53.4274 250.208 55.6861C253.126 56.9096 256.264 57.5226 259.428 57.4874C262.592 57.4522 265.715 56.7696 268.605 55.4815C268.828 55.3885 269.052 55.7047 268.81 55.8163C264.921 57.7268 260.577 58.5164 256.264 58.0966C251.952 57.6768 247.842 56.0641 244.394 53.4395C240.947 50.8148 238.299 47.2819 236.746 43.2366C235.194 39.1914 234.799 34.7938 235.606 30.5367H235.625Z" fill="#263238"/>
<path d="M345.448 47.6683C345.448 47.6683 353.391 27.2065 343.588 17.1616C338.008 11.4323 322.103 14.1296 322.103 14.1296C319.604 11.2135 316.551 8.82125 313.123 7.09083C309.694 5.36041 305.956 4.32608 302.125 4.04749C288.36 2.54076 273.33 12.2508 273.33 12.2508C273.33 12.2508 259.732 6.44711 248.59 14.669C233.076 26.1276 238.136 51.2212 255.826 57.4527C268.27 61.7869 283.003 49.5098 283.003 49.5098C284.565 49.5098 301.4 57.1551 311.649 41.7344C311.649 41.7344 322.308 49.175 330.251 42.1622C331.914 44.5275 334.264 46.3243 336.982 47.3092C339.701 48.2941 342.656 48.4194 345.448 47.6683Z" fill="#806A49"/>
<path d="M304.618 103.138C302.417 103.279 300.21 102.984 298.123 102.27C296.037 101.555 294.112 100.435 292.46 98.9749C290.807 97.5143 289.46 95.7416 288.494 93.7586C287.529 91.7756 286.965 89.6215 286.835 87.4199C286.641 84.2948 287.327 81.178 288.816 78.4234C290.304 75.6689 292.536 73.387 295.256 71.8369C297.976 70.2868 301.077 69.5307 304.206 69.6544C307.334 69.7782 310.366 70.7768 312.955 72.5369C315.545 74.297 317.589 76.748 318.855 79.6115C320.121 82.4751 320.559 85.6363 320.119 88.7363C319.679 91.8363 318.378 94.7507 316.365 97.1485C314.352 99.5464 311.706 101.331 308.729 102.301C307.4 102.753 306.018 103.034 304.618 103.138ZM289.104 87.2711C289.282 90.1381 290.307 92.888 292.047 95.1732C293.788 97.4583 296.167 99.1761 298.884 100.109C301.6 101.043 304.533 101.15 307.31 100.417C310.088 99.6842 312.586 98.1444 314.488 95.9923C316.391 93.8401 317.613 91.1722 318 88.3258C318.386 85.4794 317.921 82.5822 316.661 80.0004C315.402 77.4186 313.405 75.2682 310.924 73.8208C308.442 72.3735 305.588 71.6942 302.721 71.8689C301.514 71.9482 300.321 72.1731 299.168 72.5386C296.096 73.5338 293.441 75.5202 291.62 78.1864C289.799 80.8526 288.914 84.0478 289.104 87.2711Z" fill="#1BFF07"/>
<path d="M269.814 109.853C263.062 111.174 256.105 104.868 254.338 95.7906C253.455 91.6966 253.878 87.4291 255.547 83.5879C256.167 81.8975 257.212 80.3955 258.582 79.2269C259.952 78.0584 261.6 77.2627 263.367 76.9168C265.134 76.5708 266.96 76.6864 268.67 77.2521C270.379 77.8179 271.914 78.8148 273.125 80.1466C276.118 83.0695 278.121 86.8548 278.855 90.9728C280.529 99.5667 276.995 107.714 270.875 109.574C270.527 109.689 270.173 109.782 269.814 109.853ZM257.593 84.5366C256.113 87.9447 255.742 91.7321 256.533 95.3627C258.077 103.213 263.843 108.737 269.386 107.658C274.93 106.579 278.185 99.2877 276.66 91.4192C276.011 87.7611 274.243 84.3945 271.6 81.7836C270.606 80.7469 269.378 79.9641 268.018 79.5012C266.658 79.0383 265.208 78.9087 263.787 79.1235C263.509 79.1653 263.235 79.2338 262.969 79.3281C261.761 79.7766 260.659 80.4711 259.734 81.3677C258.809 82.2643 258.079 83.3434 257.593 84.5366Z" fill="#1BFF07"/>
<path d="M287.765 89.206L288.862 87.2529C285.942 85.6345 279.561 83.9418 276.436 89.113L278.297 90.3035C281.18 85.6717 287.504 89.0758 287.765 89.206Z" fill="#1BFF07"/>
<path d="M361.985 79.0681L363.752 77.673C363.101 76.8545 357.242 69.6743 352.164 69.8417C347.439 70.0092 318.458 78.5473 317.23 78.9193L317.862 81.0771C326.177 78.6031 348.574 72.2041 352.238 72.0739C355.586 71.9809 360.404 77.0964 361.985 79.0681Z" fill="#1BFF07"/>
<path d="M342.584 83.5135C342.584 83.5135 349.448 62.01 358.842 63.8702C368.235 65.7303 366.915 94.321 358.581 100.757C357.57 101.657 356.388 102.342 355.105 102.772C353.823 103.203 352.466 103.369 351.118 103.261C349.769 103.154 348.456 102.774 347.258 102.145C346.06 101.517 345.001 100.652 344.146 99.6039L342.584 83.5135Z" fill="#F8D197"/>
<path d="M358.265 72.0549C358.414 72.0549 358.507 72.2038 358.395 72.2968C352.61 77.0216 351.048 84.239 350.582 91.3448C351.792 88.2942 354.042 86.1178 358.023 87.4385C358.246 87.4385 358.153 87.8291 358.023 87.8477C356.746 87.8396 355.497 88.2267 354.448 88.956C353.399 89.6853 352.601 90.7211 352.164 91.9215C351.449 93.9328 350.956 96.0161 350.694 98.1344C350.564 98.8227 349.411 98.8413 349.429 98.1344V97.967C346.602 89.5405 349.485 75.7194 358.265 72.0549Z" fill="#263238"/>
<path d="M352.963 67.2186C352.963 67.2186 351.624 37.1026 341.04 21.6074C329.246 4.34512 296.694 -7.20648 273.404 12.3066C273.404 12.3066 307.222 3.50804 329.377 24.3046C339.552 33.8659 343.086 69.1717 343.086 69.1717L352.963 67.2186Z" fill="#C7C7C7"/>
<path d="M353.659 110.589C367.028 109.234 376.613 95.7808 375.068 80.5413C373.522 65.3018 361.432 54.0468 348.063 55.4024C334.694 56.758 325.109 70.211 326.654 85.4504C328.199 100.69 340.29 111.945 353.659 110.589Z" fill="#C7C7C7"/>
<path d="M333.636 83.8488C335.031 97.5581 345.895 107.677 357.911 106.45C369.928 105.222 378.541 93.1309 377.164 79.4402C375.788 65.7494 364.906 55.6301 352.87 56.8392C340.835 58.0483 332.241 70.158 333.636 83.8488Z" fill="#455A64"/>
<path d="M406.834 165.138C442.884 203.755 528.656 348.661 500.846 375.336C473.037 402.011 318.737 366.035 275.395 345.443C262.485 339.305 311.482 258.909 326.642 257.03C339.254 255.467 403.765 284.932 405.625 281.212C407.745 277.027 393.087 250.11 377.573 194.063C359.679 129.534 390.911 148.08 406.834 165.138Z" fill="#F8D197"/>
<path d="M262.578 231.117C231.253 226.765 222.529 230.448 198.049 212.72C181.977 201.094 167.654 206.359 176.806 224.849C191.818 255.076 231.067 269.195 246.079 270.181L262.578 231.117Z" fill="#F8D197"/>
<path d="M345.82 261.289C345.82 261.289 310.608 241.739 277.683 233.777C254.896 228.29 204.02 221.835 155.34 272.041C143.788 283.964 135.771 309.114 161.702 296.52C180.117 287.554 189.083 276.319 200.765 273.064C200.765 273.064 194.385 306.286 206.755 317.373C217.585 327.081 229.091 336.008 241.186 344.085C243.168 342.205 245.032 340.205 246.767 338.095C246.767 338.095 259.323 347.396 282.928 345.126L345.82 261.289Z" fill="#F8D197"/>
<path d="M255.101 232.01C244.219 237.684 221.339 250.11 206.16 266.777C189.307 285.285 161.813 325.502 175.597 337.816C185.717 346.838 197.566 332.403 197.566 332.403C197.566 332.403 189.716 351.414 200.635 357.571C210.587 363.152 219.069 351.47 219.069 351.47C219.069 351.47 216.298 363.821 226.919 367.374C239.698 371.653 243.437 345.052 260.123 338.188C263.862 336.663 255.101 232.01 255.101 232.01Z" fill="#F8D197"/>
<path d="M228.686 281.323C219.385 288.355 202.142 309.747 197.398 331.901C197.287 332.404 197.603 332.757 197.807 332.329C206.059 314.19 216.49 297.124 228.872 281.51C228.947 281.379 228.798 281.249 228.686 281.323Z" fill="#263238"/>
<path d="M246.897 298.883C239.456 305.784 222.715 328.646 218.66 351.247C218.567 351.749 218.92 352.084 219.106 351.637C226.396 333.107 235.756 315.46 247.009 299.032C247.157 298.92 246.99 298.809 246.897 298.883Z" fill="#263238"/>
<path d="M200.746 272.859C190.534 275.872 183.893 280.876 175.262 286.866C171.037 289.886 166.646 292.668 162.111 295.199C157.944 297.45 151.824 300.78 147.378 297.32C144.923 295.367 144.96 291.74 145.518 288.986C146.109 285.808 147.378 282.795 149.239 280.151C149.332 280.021 149.108 279.853 149.015 279.983C147.256 282.287 145.834 284.83 144.793 287.536C143.683 290.04 143.358 292.823 143.863 295.516C145.369 301.096 152.01 301.877 156.698 300.333C159.506 299.31 162.204 298.008 164.752 296.446C167.226 295.013 169.626 293.488 171.988 291.888C176.843 288.596 181.512 285.043 186.33 281.713C191.008 278.566 195.886 275.726 200.932 273.212C200.979 273.188 201.014 273.145 201.03 273.095C201.046 273.044 201.041 272.989 201.016 272.943C200.991 272.896 200.949 272.861 200.899 272.845C200.848 272.829 200.793 272.834 200.746 272.859Z" fill="#263238"/>
<path d="M179.355 308.798C181.996 302.976 196.301 278.719 200.951 273.102C200.969 273.073 200.976 273.039 200.972 273.006C200.968 272.973 200.953 272.942 200.929 272.919C200.906 272.895 200.875 272.88 200.842 272.876C200.809 272.872 200.775 272.879 200.746 272.897C192.785 280.449 179.987 300.483 177.011 306.919C174.035 313.355 170.668 321.373 170.668 328.441C170.668 339.119 177.736 341.128 180.359 341.648C183.464 342.214 186.669 341.695 189.437 340.179C192.678 338.183 195.482 335.551 197.677 332.441C197.789 332.292 197.584 332.087 197.454 332.236C193.734 336.44 187.614 340.588 181.829 339.825C180.547 339.703 179.303 339.325 178.169 338.715C177.035 338.105 176.034 337.275 175.225 336.273C173.644 333.705 173.037 330.656 173.514 327.679C174.37 321.098 176.345 314.712 179.355 308.798Z" fill="#263238"/>
<path d="M218.66 351.247C217.172 352.512 214.121 356.939 209.266 357.888C207.542 358.357 205.73 358.399 203.986 358.01C202.242 357.621 200.62 356.813 199.258 355.655C196.757 353.045 195.376 349.56 195.408 345.945C195.811 341.419 196.557 336.929 197.64 332.515C197.64 332.31 197.435 332.217 197.38 332.422C195.596 337.047 194.511 341.912 194.162 346.857C194.094 348.814 194.422 350.765 195.125 352.593C195.828 354.421 196.892 356.089 198.254 357.497C199.719 358.875 201.537 359.822 203.507 360.232C205.476 360.642 207.521 360.5 209.415 359.822C211.275 359.115 217.321 355.265 219.05 351.47C219.106 351.377 218.734 351.191 218.66 351.247Z" fill="#263238"/>
<path d="M259.118 336.272C257.476 337.373 255.96 338.652 254.598 340.086C253.091 341.537 251.64 343.043 250.245 344.569C247.421 347.668 244.927 351.053 242.805 354.669C240.647 358.297 238.657 362.333 235.141 364.844C233.473 366.117 231.446 366.831 229.348 366.884C227.251 366.937 225.19 366.328 223.459 365.142C221.636 363.817 220.322 361.906 219.739 359.729C219.044 357.365 218.816 354.888 219.069 352.437C219.069 352.398 219.053 352.36 219.025 352.332C218.998 352.304 218.96 352.288 218.92 352.288C218.881 352.288 218.843 352.304 218.815 352.332C218.787 352.36 218.771 352.398 218.771 352.437C218.385 354.616 218.211 356.828 218.251 359.041C218.442 361.052 219.16 362.977 220.334 364.621C221.6 366.237 223.288 367.472 225.211 368.191C227.135 368.91 229.219 369.084 231.235 368.695C235.699 367.876 238.954 364.528 241.391 360.901C244.07 356.864 246.302 352.567 249.185 348.642C250.692 346.578 252.18 344.494 253.835 342.541C255.491 340.588 257.556 338.691 259.23 336.57C259.49 336.403 259.342 336.161 259.118 336.272Z" fill="#263238"/>
<path d="M271.6 345.387C265.77 344.746 260.015 343.55 254.412 341.816C254.226 341.816 253.984 342.262 254.152 342.355C256.861 343.597 259.699 344.533 262.615 345.146C265.553 345.777 268.569 345.966 271.563 345.704C271.712 345.685 271.786 345.406 271.6 345.387Z" fill="#263238"/>
<path d="M480.701 256.211L393.18 253.309C393.18 253.309 376.885 210.116 370.691 171.686C364.496 133.255 395.97 144.992 428.821 186.139C461.671 227.286 480.701 256.211 480.701 256.211Z" fill="#1BFF07"/>
</svg>
